# xmcd
#
# Track frame offsets: 
#        150
#        10680
#        23970
#        35276
#        47051
#        65793
#        78430
#        88023
#        98062
#        109349
#        122155
#        135542
#        149379
#        161341
#
# Disc length: 2275 seconds
#
# Revision: 0
# Processed by: cddbd v1.5.2PL0 Copyright (c) Steve Scherf et al.
# Submitted via: ExactAudioCopy v1.0b1
#
DISCID=b608e10e
DTITLE=Bob Wills and His Texas Playboys - The Tiffany Transcriptions [Vo
DTITLE=lume 10]
DYEAR=2017
DGENRE=Western Swing
TTITLE0=Fiddlin' Man
TTITLE1=There's A Big Rock In The Road
TTITLE2=Black Rider
TTITLE3=Punkin' Stomp
TTITLE4=El Rancho Grande
TTITLE5=I Don't Love Nobody
TTITLE6=Everybody Does It In Hawaii
TTITLE7=Silver Bells
TTITLE8=Riding On A Hump Backed Mule
TTITLE9=Bob Wills Special
TTITLE10=Go Home With The Girls In The Morning
TTITLE11=Papa's Jumpin
TTITLE12=Echoes From The Hills
TTITLE13=Rubber Dolly (Take 2)
EXTD=
EXTT0=
EXTT1=
EXTT2=
EXTT3=
EXTT4=
EXTT5=
EXTT6=
EXTT7=
EXTT8=
EXTT9=
EXTT10=
EXTT11=
EXTT12=
EXTT13=
PLAYORDER=
